<svg viewBox="0 0 1128 1128" width="1128" height="1128" x="0" y="0" xmlns="http://www.w3.org/2000/svg"><defs><pattern id="pattern" x="0" y="0" width="8" height="8" patternUnits="userSpaceOnUse"><polygon points="0,4 0,8 8,0 4,0" fill="#ffffff"></polygon><polygon points="4,8 8,8 8,4" fill="#ffffff"></polygon></pattern><mask id="grating" x="0" y="0" width="1" height="1"><rect x="0" y="0" width="100%" height="100%" fill="url(#pattern)"></rect></mask></defs><g id="horizStripes"><rect fill="#343498" height="48" width="100%" x="0" y="0"></rect><rect fill="#101010" height="264" width="100%" x="0" y="48"></rect><rect fill="#343498" height="120" width="100%" x="0" y="312"></rect><rect fill="#101010" height="24" width="100%" x="0" y="432"></rect><rect fill="#343498" height="120" width="100%" x="0" y="456"></rect><rect fill="#101010" height="24" width="100%" x="0" y="576"></rect><rect fill="#343498" height="120" width="100%" x="0" y="600"></rect><rect fill="#101010" height="24" width="100%" x="0" y="720"></rect><rect fill="#343498" height="120" width="100%" x="0" y="744"></rect><rect fill="#101010" height="264" width="100%" x="0" y="864"></rect></g><g id="vertStripes" mask="url(#grating)"><rect fill="#343498" height="100%" width="48" x="0" y="0"></rect><rect fill="#101010" height="100%" width="264" x="48" y="0"></rect><rect fill="#343498" height="100%" width="120" x="312" y="0"></rect><rect fill="#101010" height="100%" width="24" x="432" y="0"></rect><rect fill="#343498" height="100%" width="120" x="456" y="0"></rect><rect fill="#101010" height="100%" width="24" x="576" y="0"></rect><rect fill="#343498" height="100%" width="120" x="600" y="0"></rect><rect fill="#101010" height="100%" width="24" x="720" y="0"></rect><rect fill="#343498" height="100%" width="120" x="744" y="0"></rect><rect fill="#101010" height="100%" width="264" x="864" y="0"></rect></g></svg>